<svg width="454" height="350" viewBox="0 0 454 350" fill="none" xmlns="http://www.w3.org/2000/svg">
<path d="M106 350L0.5 -2.38419e-05H42.5L110 231C112.667 239 114.833 246.667 116.5 254C118.5 261 120.167 267.833 121.5 274.5C122.833 280.833 124.167 287.333 125.5 294C126.833 300.333 128.167 307 129.5 314L121 313.5C125.333 298.167 128.833 286 131.5 277C134.5 268 137.333 260 140 253C142.667 246 145.667 238 149 229L208 80.5H244.5L304 230.5C308 239.833 311.5 248.667 314.5 257C317.5 265.333 320.333 273.833 323 282.5C326 291.167 328.833 300.833 331.5 311.5L323.5 313C325.167 304.667 326.5 297.833 327.5 292.5C328.5 287.167 329.5 282.5 330.5 278.5C331.5 274.167 332.5 270 333.5 266C334.5 261.667 335.833 256.667 337.5 251C339.167 245 341.333 237.5 344 228.5L411.5 -2.38419e-05H453.5L347 350H314.5L220 125L229 126.5L138 350H106Z" fill="#EBEBEB"/>
</svg>
